<svg width="1440" height="1024" viewBox="0 0 1440 1024" fill="none" xmlns="http://www.w3.org/2000/svg">
<g clip-path="url(#clip0_210_90)">
<rect width="1440" height="1024" fill="white"/>
<path d="M1573.99 534.131C1573.99 698.098 1441.07 831.02 1277.1 831.02C1113.13 831.02 980.211 698.098 980.211 534.131C980.211 370.164 1113.13 237.243 1277.1 237.243C1441.07 237.243 1573.99 370.164 1573.99 534.131Z" fill="#E0E0E0"/>
<mask id="mask0_210_90" style="mask-type:alpha" maskUnits="userSpaceOnUse" x="980" y="237" width="594" height="595">
<path d="M1573.99 534.131C1573.99 698.098 1441.07 831.02 1277.1 831.02C1113.13 831.02 980.211 698.098 980.211 534.131C980.211 370.164 1113.13 237.243 1277.1 237.243C1441.07 237.243 1573.99 370.164 1573.99 534.131Z" fill="#E0E0E0"/>
</mask>
<g mask="url(#mask0_210_90)">
<g opacity="0.15">
<path d="M990.971 496.677L979.834 495.654C979.166 502.84 976.724 510.396 973.563 517.606L903.029 559.679C895.559 558.374 888.232 556.313 882.093 553.066L876.861 562.95C895.512 572.819 922.12 573.357 936.953 572.732C925.593 590.741 913.496 618.731 924.883 645.277C938.463 676.895 978.756 678.207 1001.31 676.242C980.033 703.448 974.845 732.531 987.207 756.384C998.127 777.457 1021.38 789.948 1046.44 788.201C1049.95 787.954 1053.39 787.817 1056.79 787.723C1043.17 812.338 1037.38 831.35 1037.05 832.459L1047.77 835.649C1047.81 835.516 1049.32 830.574 1052.53 822.626L1104.73 790.709C1119.98 793.015 1129.46 795.771 1129.65 795.825L1132.83 785.103C1132.15 784.899 1124.58 782.687 1112.26 780.546L1111.81 779.812L1110.96 780.334C1101.7 778.768 1089.93 777.301 1076.46 776.703C1079.64 771.799 1083.09 766.811 1086.88 761.81C1091.73 755.397 1095.26 748.344 1097.44 741.036C1102.05 725.52 1100.55 708.868 1092.62 694.82C1080.61 673.562 1057.06 662.066 1027.04 662.356C1040.15 643.433 1054.09 613.924 1037.42 588.848C1030.4 578.294 1020.67 571.395 1010.17 566.925L1009.32 565.488L1008.24 566.125C991.606 559.56 973.374 558.85 961.017 559.417C966.368 552.685 988.501 523.409 990.971 496.677ZM931.829 618.034L1002.47 576.055C1010.36 578.931 1017.8 583.149 1023.68 589.459L935.426 641.392C935.345 641.21 935.245 641.044 935.165 640.86C931.958 633.393 931.176 625.647 931.829 618.034ZM1095.91 789.535L1056.31 813.747C1059.67 806.248 1064.09 797.322 1069.7 787.685C1079.29 787.899 1088.11 788.61 1095.91 789.535ZM1077.96 755.055C1072.48 762.287 1067.64 769.481 1063.38 776.408C1057.67 776.423 1051.75 776.615 1045.66 777.04C1034.86 777.792 1024.53 775.304 1015.83 770.363L1088.66 727.085C1087.93 736.858 1084.35 746.619 1077.96 755.055ZM1082.88 700.32C1086.41 706.569 1088.34 713.473 1088.76 720.527L1010.58 766.981C1005.02 762.811 1000.39 757.505 997.137 751.235C993.631 744.471 991.916 737.123 991.862 729.449L1067.92 684.253C1074.13 688.456 1079.21 693.825 1082.88 700.32ZM1062.43 681.013L992.216 722.737C993.79 709.347 1000.26 695.19 1011.4 681.463C1012.23 680.626 1014.79 677.979 1018.13 674.004C1035.46 672.428 1050.59 674.909 1062.43 681.013ZM1012.14 663.571C1004.3 664.893 979.271 668.242 959.215 661.399L1033.66 617.593C1032.33 635.11 1020.62 652.845 1012.14 663.571ZM1033.64 611.11L952.743 658.715C946.918 655.823 941.829 651.807 938.139 646.288L1027.19 593.888C1027.47 594.291 1027.82 594.626 1028.1 595.044C1031.48 600.126 1033.17 605.561 1033.64 611.11ZM932.856 610.923C936.058 595.214 944.711 580.768 951.403 571.469C958.841 570.585 977.365 569.192 995.297 573.817L932.856 610.923ZM945.175 560.988C941.246 561.356 927.195 562.44 911.913 560.899L969.086 526.793C961.038 541.8 951.489 553.437 951.46 553.476C951.047 553.918 948.565 556.61 945.175 560.988Z" fill="white"/>
<path d="M995.798 748.188L998.655 752.993L1083.72 702.444L1080.86 697.641L995.798 748.188Z" fill="white"/>
</g>
<g opacity="0.15">
<path d="M1196.35 1129.7L1207.51 1130.4C1207.98 1123.2 1210.2 1115.58 1213.16 1108.28L1282.48 1064.24C1289.98 1065.33 1297.36 1067.18 1303.59 1070.25L1308.54 1060.23C1289.62 1050.89 1263.01 1051.1 1248.2 1052.15C1259.05 1033.82 1270.35 1005.5 1258.21 979.289C1243.75 948.067 1203.43 947.894 1180.94 950.496C1201.44 922.699 1205.81 893.481 1192.78 869.987C1181.26 849.231 1157.67 837.401 1132.67 839.856C1129.16 840.202 1125.73 840.437 1122.33 840.627C1135.25 815.636 1140.5 796.468 1140.8 795.35L1129.99 792.464C1129.96 792.599 1128.59 797.581 1125.61 805.617L1074.33 838.996C1059.02 837.122 1049.46 834.635 1049.28 834.586L1046.4 845.394C1047.09 845.578 1054.71 847.575 1067.09 849.367L1067.56 850.089L1068.39 849.543C1077.7 850.847 1089.51 851.98 1102.99 852.198C1099.94 857.19 1096.64 862.273 1092.99 867.379C1088.32 873.927 1084.99 881.077 1083.03 888.443C1078.85 904.084 1080.82 920.686 1089.15 934.504C1101.75 955.415 1125.62 966.24 1155.62 965.103C1143.05 984.389 1129.95 1014.28 1147.32 1038.87C1154.63 1049.23 1164.56 1055.85 1175.18 1060.02L1176.07 1061.43L1177.13 1060.76C1193.94 1066.86 1212.18 1067.05 1224.52 1066.14C1219.36 1073.02 1198.07 1102.91 1196.35 1129.7ZM1252.04 1006.72L1182.61 1050.67C1174.65 1048.02 1167.09 1044.02 1161.04 1037.88L1247.79 983.47C1247.87 983.65 1247.98 983.812 1248.06 983.995C1251.48 991.368 1252.48 999.088 1252.04 1006.72ZM1083.18 839.92L1122.08 814.599C1118.93 822.19 1114.77 831.237 1109.43 841.029C1099.84 841.086 1091 840.625 1083.18 839.92ZM1102.1 873.88C1107.37 866.495 1112.01 859.167 1116.07 852.123C1121.77 851.947 1127.69 851.588 1133.77 850.99C1144.54 849.933 1154.93 852.129 1163.77 856.823L1092.19 902.141C1092.65 892.351 1095.95 882.493 1102.1 873.88ZM1098.73 928.731C1095.02 922.585 1092.89 915.738 1092.28 908.698L1169.11 860.054C1174.78 864.066 1179.57 869.239 1183 875.415C1186.69 882.076 1188.61 889.373 1188.88 897.043L1114.14 944.369C1107.8 940.343 1102.58 935.12 1098.73 928.731ZM1119.71 947.453L1188.72 903.762C1187.52 917.191 1181.46 931.525 1170.71 945.561C1169.9 946.422 1167.42 949.14 1164.19 953.208C1146.91 955.273 1131.72 953.22 1119.71 947.453ZM1170.48 963.467C1178.28 961.924 1203.2 957.87 1223.44 964.143L1150.27 1010.04C1151.1 992.487 1162.3 974.429 1170.48 963.467ZM1150.47 1016.51L1229.99 966.643C1235.89 969.369 1241.09 973.24 1244.93 978.653L1157.4 1033.55C1157.11 1033.15 1156.75 1032.83 1156.46 1032.42C1152.93 1027.43 1151.09 1022.05 1150.47 1016.51ZM1251.21 1013.85C1248.46 1029.65 1240.22 1044.33 1233.79 1053.82C1226.38 1054.91 1207.9 1056.83 1189.85 1052.71L1251.21 1013.85ZM1240.31 1064.12C1244.23 1063.64 1258.24 1062.16 1273.56 1063.27L1217.38 1098.97C1225 1083.75 1234.21 1071.84 1234.24 1071.8C1234.64 1071.35 1237.05 1068.59 1240.31 1064.12Z" fill="white"/>
</g>
<g opacity="0.15">
<path d="M871.13 553.023L882.27 554.012C882.916 546.824 885.335 539.26 888.474 532.041L958.879 489.752C966.353 491.034 973.687 493.073 979.835 496.302L985.037 486.401C966.356 476.59 939.747 476.132 924.915 476.803C936.22 458.76 948.232 430.732 936.764 404.222C923.088 372.645 882.79 371.456 860.24 373.49C881.437 346.219 886.536 317.121 874.101 293.305C863.116 272.266 839.825 259.845 814.774 261.669C811.257 261.927 807.818 262.075 804.421 262.179C817.964 237.522 823.696 218.493 824.023 217.382L813.292 214.225C813.252 214.359 811.759 219.305 808.581 227.263L756.476 259.34C741.22 257.08 731.724 254.353 731.539 254.299L728.387 265.031C729.075 265.233 736.644 267.422 748.972 269.525L749.423 270.258L750.274 269.733C759.542 271.271 771.319 272.702 784.787 273.259C781.62 278.173 778.186 283.171 774.413 288.184C769.579 294.612 766.072 301.675 763.92 308.99C759.35 324.52 760.902 341.167 768.881 355.191C780.955 376.412 804.537 387.836 834.556 387.455C821.506 406.418 807.654 435.969 824.401 460.994C831.452 471.526 841.207 478.395 851.719 482.834L852.576 484.268L853.648 483.627C870.303 490.141 888.537 490.796 900.893 490.192C895.562 496.939 873.518 526.283 871.13 553.023ZM929.901 431.485L859.389 473.68C851.491 470.828 844.035 466.633 838.141 460.341L926.233 408.138C926.314 408.321 926.415 408.486 926.496 408.67C929.725 416.127 930.531 423.87 929.901 431.485ZM765.296 260.486L804.821 236.154C801.487 243.662 797.095 252.602 791.512 262.256C781.924 262.072 773.099 261.388 765.296 260.486ZM783.353 294.912C788.806 287.663 793.629 280.454 797.87 273.514C803.573 273.481 809.494 273.271 815.589 272.828C826.384 272.043 836.716 274.5 845.431 279.414L772.735 322.914C773.442 313.139 776.989 303.367 783.353 294.912ZM778.603 349.661C775.052 343.423 773.095 336.525 772.661 329.472L850.693 282.779C856.263 286.933 860.917 292.225 864.186 298.485C867.713 305.238 869.45 312.58 869.528 320.255L793.611 365.682C787.383 361.498 782.292 356.145 778.603 349.661ZM799.109 368.906L869.195 326.968C867.662 340.362 861.239 354.538 850.136 368.299C849.308 369.14 846.759 371.794 843.428 375.779C826.104 377.408 810.967 374.973 799.109 368.906ZM849.454 386.194C857.29 384.848 882.306 381.423 902.383 388.204L828.075 432.238C829.35 414.717 841.004 396.946 849.454 386.194ZM828.113 438.72L908.863 390.868C914.696 393.742 919.798 397.743 923.504 403.251L834.619 455.923C834.331 455.52 833.982 455.187 833.702 454.769C830.304 449.698 828.595 444.268 828.113 438.72ZM928.896 438.6C925.742 454.318 917.133 468.79 910.47 478.11C903.034 479.017 884.514 480.466 866.569 475.896L928.896 438.6ZM916.73 488.572C920.657 488.192 934.705 487.065 949.992 488.56L892.923 522.839C900.925 507.808 910.438 496.143 910.467 496.103C910.879 495.66 913.353 492.96 916.73 488.572Z" fill="white"/>
</g>
<g opacity="0.15">
<path d="M1391.52 -110.786L1369.98 -112.73C1368.72 -98.8359 1364.02 -84.2205 1357.93 -70.2744L1221.71 11.2724C1207.27 8.77293 1193.09 4.81179 1181.22 -1.44792L1171.13 17.6762C1207.22 36.695 1258.66 37.6559 1287.33 36.4012C1265.42 71.2485 1242.12 125.394 1264.22 176.674C1290.56 237.755 1368.46 240.167 1412.06 236.3C1371.01 288.959 1361.06 345.192 1385.03 391.266C1406.21 431.968 1451.2 456.043 1499.63 452.589C1506.43 452.103 1513.08 451.825 1519.64 451.633C1493.39 499.26 1482.26 536.028 1481.62 538.173L1502.36 544.307C1502.44 544.05 1505.34 534.492 1511.5 519.119L1612.32 457.258C1641.8 461.671 1660.15 466.968 1660.51 467.073L1666.63 446.338C1665.3 445.944 1650.68 441.692 1626.85 437.591L1625.99 436.172L1624.34 437.185C1606.42 434.185 1583.66 431.386 1557.63 430.271C1563.77 420.782 1570.42 411.129 1577.73 401.449C1587.09 389.036 1593.89 375.392 1598.07 361.258C1606.95 331.25 1604 299.065 1588.61 271.933C1565.33 230.877 1519.78 208.727 1461.75 209.377C1487.03 172.758 1513.89 115.671 1481.59 67.2487C1467.99 46.8674 1449.15 33.5623 1428.84 24.9511L1427.19 22.1756L1425.11 23.4122C1392.94 10.7726 1357.69 9.45462 1333.8 10.5887C1344.13 -2.43986 1386.82 -59.1017 1391.52 -110.786ZM1277.56 123.99L1413.99 42.6255C1429.25 48.1604 1443.65 56.2914 1455.02 68.4712L1284.59 169.133C1284.43 168.781 1284.23 168.462 1284.08 168.105C1277.86 153.68 1276.32 138.709 1277.56 123.99ZM1595.27 455.017L1518.8 501.943C1525.26 487.437 1533.78 470.169 1544.6 451.522C1563.13 451.904 1580.19 453.253 1595.27 455.017ZM1560.46 388.417C1549.9 402.416 1540.56 416.338 1532.34 429.739C1521.31 429.788 1509.87 430.177 1498.09 431.016C1477.21 432.503 1457.25 427.723 1440.42 418.199L1581.07 334.317C1579.67 353.211 1572.79 372.091 1560.46 388.417ZM1569.8 282.597C1576.65 294.666 1580.41 308.006 1581.23 321.64L1430.25 411.68C1419.5 403.634 1410.52 393.391 1404.22 381.281C1397.42 368.218 1394.08 354.02 1393.95 339.183L1540.84 251.583C1552.86 259.689 1562.69 270.053 1569.8 282.597ZM1530.22 245.336L1394.61 326.206C1397.62 300.318 1410.07 272.932 1431.58 246.363C1433.18 244.741 1438.11 239.617 1444.56 231.923C1478.06 228.821 1507.31 233.573 1530.22 245.336ZM1432.94 211.773C1417.79 214.353 1369.42 220.902 1330.63 207.736L1474.4 122.826C1471.89 156.693 1449.31 191.01 1432.94 211.773ZM1474.35 110.294L1318.11 202.567C1306.84 196.995 1297 189.246 1289.85 178.589L1461.82 77.0228C1462.38 77.8009 1463.05 78.4463 1463.59 79.2541C1470.14 89.0677 1473.43 99.5689 1474.35 110.294ZM1279.52 110.24C1285.67 79.8644 1302.35 51.9133 1315.26 33.9157C1329.63 32.1848 1365.44 29.4352 1400.11 38.3214L1279.52 110.24ZM1303.18 13.6743C1295.59 14.3981 1268.43 16.5371 1238.89 13.602L1349.3 -52.5C1333.79 -23.4664 1315.37 -0.942516 1315.31 -0.865256C1314.52 -0.00967352 1309.73 5.20148 1303.18 13.6743Z" fill="white"/>
<path d="M1401.62 375.395L1407.16 384.674L1571.43 286.701L1565.89 277.422L1401.62 375.395Z" fill="white"/>
</g>
<g opacity="0.15">
<path d="M1781.84 1100.87L1803.38 1102.65C1804.55 1088.75 1809.14 1074.1 1815.13 1060.11L1950.75 977.576C1965.21 979.971 1979.41 983.828 1991.33 990.002L2001.28 970.805C1965.06 952.049 1913.61 951.462 1884.95 952.926C1906.6 917.92 1929.51 863.606 1907.04 812.488C1880.25 751.601 1802.34 749.756 1758.77 753.94C1799.44 700.984 1808.97 644.679 1784.66 598.782C1763.19 558.235 1718.03 534.488 1669.63 538.294C1662.83 538.83 1656.18 539.156 1649.62 539.396C1675.52 491.579 1686.39 454.73 1687.01 452.581L1666.23 446.598C1666.16 446.856 1663.33 456.435 1657.27 471.852L1556.91 534.445C1527.39 530.247 1509 525.084 1508.64 524.981L1502.67 545.761C1504 546.145 1518.66 550.29 1542.51 554.217L1543.39 555.63L1545.03 554.605C1562.97 557.475 1585.75 560.108 1611.79 561.034C1605.72 570.567 1599.14 580.268 1591.9 590.001C1582.63 602.481 1575.93 616.175 1571.85 630.339C1563.19 660.411 1566.38 692.573 1581.96 719.593C1605.54 760.478 1651.25 782.296 1709.28 781.224C1684.26 818.026 1657.82 875.307 1690.47 923.493C1704.22 943.775 1723.15 956.942 1743.53 965.405L1745.2 968.169L1747.26 966.917C1779.53 979.322 1814.79 980.384 1838.67 979.076C1828.44 992.179 1786.15 1049.15 1781.84 1100.87ZM1894.08 865.268L1758.25 947.623C1742.95 942.2 1728.49 934.174 1717.03 922.077L1886.73 820.177C1886.89 820.528 1887.08 820.846 1887.24 821.201C1893.57 835.581 1895.21 850.54 1894.08 865.268ZM1573.97 536.562L1650.1 489.081C1643.74 503.634 1635.35 520.963 1624.67 539.688C1606.13 539.441 1589.06 538.216 1573.97 536.562ZM1609.26 602.907C1619.72 588.831 1628.96 574.842 1637.08 561.381C1648.11 561.253 1659.55 560.78 1671.33 559.856C1692.19 558.216 1712.19 562.85 1729.09 572.252L1589.05 657.155C1590.31 638.252 1597.05 619.322 1609.26 602.907ZM1600.69 708.792C1593.76 696.774 1589.9 683.461 1588.98 669.834L1739.3 578.697C1750.11 586.664 1759.17 596.842 1765.56 608.906C1772.45 621.919 1775.89 636.092 1776.13 650.928L1629.88 739.595C1617.8 731.577 1607.9 721.284 1600.69 708.792ZM1640.55 745.764L1775.56 663.91C1772.75 689.818 1760.49 717.294 1739.18 744.019C1737.59 745.653 1732.69 750.813 1726.3 758.554C1692.83 761.899 1663.54 757.36 1640.55 745.764ZM1738.06 778.619C1753.2 775.928 1801.51 769.027 1840.4 781.91L1697.25 867.865C1699.52 833.981 1721.85 799.5 1738.06 778.619ZM1697.4 880.396L1852.96 786.988C1864.27 792.479 1874.17 800.155 1881.4 810.76L1710.17 913.575C1709.61 912.801 1708.93 912.161 1708.38 911.357C1701.76 901.591 1698.39 891.114 1697.4 880.396ZM1892.22 879.032C1886.3 909.452 1869.82 937.523 1857.04 955.614C1842.68 957.45 1806.89 960.46 1772.15 951.826L1892.22 879.032ZM1869.26 975.767C1876.85 974.988 1903.99 972.652 1933.56 975.372L1823.63 1042.28C1838.93 1013.13 1857.18 990.473 1857.24 990.395C1858.03 989.533 1862.78 984.288 1869.26 975.767Z" fill="white"/>
</g>
</g>
<g opacity="0.15">
<path d="M1101.42 687.255C1101.42 725.663 1070.28 756.8 1031.87 756.8C993.463 756.8 962.327 725.663 962.327 687.255C962.327 648.846 993.463 617.709 1031.87 617.709C1070.28 617.709 1101.42 648.846 1101.42 687.255Z" fill="white" fill-opacity="0.7"/>
<path d="M1089.95 687.254C1089.95 719.328 1063.94 745.328 1031.87 745.328C999.799 745.328 973.798 719.328 973.798 687.254C973.798 655.181 999.799 629.181 1031.87 629.181C1063.94 629.181 1089.95 655.181 1089.95 687.254Z" stroke="black" stroke-width="1.85185"/>
</g>
<path d="M1004.57 712.426L1013.88 705.662L1014.44 706.545L1004.57 712.426Z" fill="black"/>
<path d="M1040.44 697.308L1037.95 698.868L1030.74 687.378L1032.18 686.475L1045.77 677.947L1052.98 689.437L1041.21 696.825L1042.43 698.218L1055.72 689.874L1046.84 675.731L1015.91 695.149L1012.39 707.213L1024.78 709.291L1042.27 698.314C1041.78 698.142 1041.13 697.812 1040.44 697.308Z" fill="black"/>
<path d="M1036.84 691.817L1032.18 686.476L1030.74 687.377L1037.96 698.868L1040.44 697.308C1038.97 696.24 1037.35 694.422 1036.84 691.817Z" fill="black"/>
<path d="M1040.44 697.309C1041.13 697.812 1041.78 698.143 1042.27 698.314L1042.43 698.219L1041.21 696.825L1040.44 697.309Z" fill="black"/>
<path d="M1036.72 691.016C1036.27 686.37 1032.18 686.476 1032.18 686.476L1036.84 691.817C1036.79 691.558 1036.75 691.291 1036.72 691.016Z" fill="black"/>
<path d="M1055.39 691.313L1045.4 675.402C1045.1 674.914 1045.25 674.27 1045.73 673.964C1046.22 673.657 1046.87 673.805 1047.17 674.293L1057.16 690.204C1057.46 690.691 1057.32 691.336 1056.83 691.642C1056.34 691.949 1055.7 691.801 1055.39 691.313Z" fill="black"/>
<path d="M1067.77 683.546L1057.78 667.637C1057.47 667.148 1057.62 666.504 1058.11 666.197C1058.6 665.891 1059.24 666.039 1059.55 666.526L1069.53 682.436C1069.84 682.925 1069.69 683.57 1069.2 683.877C1068.72 684.183 1068.07 684.034 1067.77 683.546Z" fill="black"/>
<path d="M1054.99 684.787L1051.11 678.6L1061.72 671.943L1065.6 678.131L1054.99 684.787Z" fill="black"/>
<g opacity="0.15">
<path d="M1071.09 427.963C1071.09 466.371 1039.95 497.508 1001.54 497.508C963.136 497.508 932 466.371 932 427.963C932 389.554 963.136 358.417 1001.54 358.417C1039.95 358.417 1071.09 389.554 1071.09 427.963Z" fill="white" fill-opacity="0.7"/>
<path d="M1059.62 427.962C1059.62 460.036 1033.62 486.036 1001.54 486.036C969.472 486.036 943.472 460.036 943.472 427.962C943.472 395.889 969.472 369.889 1001.54 369.889C1033.62 369.889 1059.62 395.889 1059.62 427.962Z" stroke="black" stroke-width="1.85185"/>
</g>
<path d="M1009.73 425.995L1005.47 425.641L1005.82 421.378L1001.56 421.024L1001.21 425.287L996.943 424.933L996.589 429.195L1000.85 429.549L1000.5 433.811L1004.76 434.165L1005.11 429.903L1009.38 430.257L1009.73 425.995Z" fill="black"/>
<path d="M1029.86 410.5L982.2 406.54C979.472 406.314 977.076 408.342 976.85 411.071L974.378 440.831C974.151 443.559 976.179 445.955 978.907 446.182L1026.57 450.141C1029.3 450.368 1031.69 448.339 1031.92 445.611L1034.39 415.851C1034.62 413.122 1032.59 410.726 1029.86 410.5ZM1002.95 437.878C997.299 437.409 993.099 432.448 993.568 426.798C994.038 421.149 998.998 416.949 1004.65 417.418C1010.3 417.888 1014.5 422.848 1014.03 428.498C1013.56 434.148 1008.6 438.347 1002.95 437.878Z" fill="black"/>
<path d="M1018.93 412.167L1016.37 411.954L1016.57 409.528C1016.78 406.967 1015.89 405.478 1015.56 405.45L997.137 403.92C996.805 403.892 995.683 405.215 995.47 407.775L995.269 410.201L992.712 409.989L992.914 407.563C993.223 403.844 995.129 401.178 997.35 401.362L1015.77 402.893C1017.99 403.077 1019.44 406.022 1019.13 409.74L1018.93 412.167Z" fill="black"/>
<g opacity="0.15">
<path d="M1230.3 261.546C1230.3 299.954 1199.17 331.091 1160.76 331.091C1122.35 331.091 1091.21 299.954 1091.21 261.546C1091.21 223.137 1122.35 192 1160.76 192C1199.17 192 1230.3 223.137 1230.3 261.546Z" fill="white" fill-opacity="0.7"/>
<path d="M1218.83 261.546C1218.83 293.619 1192.83 319.619 1160.76 319.619C1128.69 319.619 1102.69 293.619 1102.69 261.546C1102.69 229.472 1128.69 203.472 1160.76 203.472C1192.83 203.472 1218.83 229.472 1218.83 261.546Z" stroke="black" stroke-width="1.85185"/>
</g>
<path d="M1175.92 279.753C1182.62 282.789 1190.52 279.816 1193.55 273.111C1196.59 266.407 1193.62 258.512 1186.91 255.475L1167.19 246.543L1156.19 270.821L1175.92 279.753Z" fill="black"/>
<path d="M1164.15 245.169L1144.43 236.236C1137.72 233.2 1129.83 236.174 1126.79 242.878C1123.76 249.582 1126.73 257.477 1133.43 260.513L1153.16 269.446L1164.15 245.169ZM1137.47 239.485C1138.04 238.228 1139.52 237.671 1140.78 238.24C1142.03 238.809 1142.59 240.289 1142.02 241.546C1141.45 242.803 1139.97 243.361 1138.71 242.792C1137.46 242.223 1136.9 240.742 1137.47 239.485ZM1153.47 248.562C1154.04 247.305 1155.52 246.747 1156.78 247.316C1158.04 247.886 1158.59 249.367 1158.03 250.623C1157.46 251.88 1155.98 252.438 1154.72 251.869C1153.46 251.299 1152.9 249.819 1153.47 248.562ZM1142.31 248.99C1142.88 247.733 1144.36 247.176 1145.61 247.745C1146.87 248.314 1147.43 249.796 1146.86 251.052C1146.29 252.309 1144.81 252.866 1143.55 252.297C1142.3 251.727 1141.74 250.247 1142.31 248.99ZM1130.46 250.938C1131.02 249.681 1132.5 249.123 1133.76 249.691C1135.02 250.26 1135.58 251.741 1135.01 252.998C1134.44 254.255 1132.96 254.813 1131.7 254.243C1130.44 253.674 1129.89 252.195 1130.46 250.938ZM1145.63 257.808C1146.2 256.551 1147.68 255.994 1148.94 256.563C1150.19 257.133 1150.75 258.614 1150.18 259.87C1149.61 261.127 1148.13 261.685 1146.87 261.116C1145.62 260.547 1145.06 259.065 1145.63 257.808Z" fill="black"/>
<g opacity="0.15">
<path d="M1492.63 282.774C1492.63 321.183 1461.49 352.32 1423.08 352.32C1384.68 352.32 1353.54 321.183 1353.54 282.774C1353.54 244.366 1384.68 213.229 1423.08 213.229C1461.49 213.229 1492.63 244.366 1492.63 282.774Z" fill="white" fill-opacity="0.7"/>
<path d="M1481.16 282.774C1481.16 314.847 1455.16 340.848 1423.08 340.848C1391.01 340.848 1365.01 314.847 1365.01 282.774C1365.01 250.701 1391.01 224.7 1423.08 224.7C1455.16 224.7 1481.16 250.701 1481.16 282.774Z" stroke="black" stroke-width="1.85185"/>
</g>
<path d="M1413.12 273.328L1422.41 298.075L1432.22 260.474L1440.32 288.18L1455.5 288.336C1457.2 284.586 1458.25 280.606 1458.29 276.459C1458.42 264.322 1449.57 254.391 1438.53 254.277C1432.81 254.219 1427.62 256.811 1423.94 261.007C1420.33 256.736 1415.21 254.038 1409.49 253.979C1398.44 253.865 1388.96 263.616 1389.27 275.75C1389.37 279.559 1390.33 283.279 1391.87 286.84L1405.13 286.977L1413.12 273.328Z" fill="black"/>
<path d="M1432.38 271.524L1422.92 307.808L1412.54 280.159L1406.81 289.941L1393.31 289.802C1402.33 306.73 1423.34 319.365 1423.34 319.365C1423.34 319.365 1444.68 307.933 1454.01 291.268L1438.11 291.104L1432.38 271.524Z" fill="black"/>
<g opacity="0.15">
<path d="M1557.83 715.307C1557.83 753.715 1526.7 784.852 1488.29 784.852C1449.88 784.852 1418.74 753.715 1418.74 715.307C1418.74 676.898 1449.88 645.761 1488.29 645.761C1526.7 645.761 1557.83 676.898 1557.83 715.307Z" fill="white" fill-opacity="0.7"/>
<path d="M1546.36 715.306C1546.36 747.38 1520.36 773.38 1488.29 773.38C1456.21 773.38 1430.21 747.38 1430.21 715.306C1430.21 683.233 1456.21 657.233 1488.29 657.233C1520.36 657.233 1546.36 683.233 1546.36 715.306Z" stroke="black" stroke-width="1.85185"/>
</g>
<path d="M1336 718.452L1202.51 719.101C1196.93 719.129 1192.39 714.627 1192.36 709.049C1192.33 703.47 1196.83 698.925 1202.41 698.898L1335.9 698.248C1341.48 698.221 1346.02 702.722 1346.05 708.301C1346.08 713.879 1341.58 718.425 1336 718.452Z" fill="white"/>
<path d="M1212.56 708.951C1212.58 713.334 1209.05 716.905 1204.66 716.926C1200.28 716.948 1196.71 713.411 1196.69 709.028C1196.67 704.644 1200.2 701.074 1204.59 701.052C1208.97 701.031 1212.54 704.567 1212.56 708.951Z" fill="black"/>
<path d="M1179.37 649.121L1350.24 648.29C1353.36 648.274 1355.9 650.792 1355.92 653.914L1356.05 680.844C1356.06 683.966 1353.54 686.508 1350.42 686.523L1229.77 687.11L1221.93 696.895L1212.6 687.194L1179.55 687.355C1176.43 687.37 1173.89 684.852 1173.87 681.73L1173.74 654.801C1173.73 651.679 1176.25 649.136 1179.37 649.121Z" fill="black"/>
<path d="M1179.34 643.873L1350.21 643.042C1353.33 643.027 1355.88 645.544 1355.89 648.666L1356.02 675.596C1356.04 678.718 1353.52 681.26 1350.4 681.275L1229.74 681.863L1221.9 691.647L1212.57 681.946L1179.53 682.107C1176.41 682.122 1173.86 679.604 1173.85 676.483L1173.72 649.553C1173.7 646.431 1176.22 643.889 1179.34 643.873Z" fill="white"/>
<path d="M1195.48 654.291L1310.18 653.732L1310.19 655.98L1195.49 656.539L1195.48 654.291Z" fill="black"/>
<path d="M1195.5 658.538L1310.2 657.98L1310.21 660.23L1195.51 660.788L1195.5 658.538Z" fill="black"/>
<path d="M1195.52 662.787L1310.22 662.229L1310.24 664.477L1195.53 665.035L1195.52 662.787Z" fill="black"/>
<path d="M1269.01 666.677L1310.25 666.476L1310.26 668.726L1269.02 668.926L1269.01 666.677Z" fill="black"/>
<path d="M1337.78 654.064C1337.79 656.59 1335.76 658.648 1333.23 658.66C1330.7 658.672 1328.65 656.634 1328.64 654.109C1328.62 651.583 1330.66 649.525 1333.19 649.513C1335.71 649.501 1337.77 651.539 1337.78 654.064Z" fill="black"/>
<path d="M1341.74 669.705C1341.72 665.114 1337.98 661.408 1333.38 661.431C1328.79 661.453 1325.09 665.195 1325.11 669.786L1341.74 669.705Z" fill="black"/>
<path d="M1350.2 586.538L1185.74 587.338C1182.74 587.353 1180.31 589.801 1180.33 592.805L1180.45 618.724C1180.47 621.728 1182.91 624.152 1185.92 624.138L1302.04 623.572L1309.68 632.915L1318.57 623.492L1350.38 623.337C1353.38 623.323 1355.8 620.875 1355.79 617.871L1355.66 591.952C1355.65 588.947 1353.2 586.523 1350.2 586.538Z" fill="black"/>
<path d="M1350.17 581.487L1185.72 582.287C1182.71 582.302 1180.29 584.75 1180.3 587.754L1180.43 613.674C1180.44 616.678 1182.89 619.101 1185.89 619.087L1302.02 618.522L1309.66 627.865L1318.55 618.441L1350.35 618.286C1353.36 618.272 1355.78 615.825 1355.76 612.82L1355.64 586.901C1355.62 583.897 1353.18 581.473 1350.17 581.487Z" fill="white"/>
<path d="M1214.98 596.027C1214.96 592.775 1212.31 589.458 1209.06 589.474C1205.92 589.49 1203.38 591.956 1203.21 595.048L1203.19 595.046L1203.18 595.048C1202.98 591.958 1200.41 589.516 1197.28 589.532C1194.03 589.547 1191.41 592.889 1191.42 596.142C1191.42 596.531 1191.46 596.91 1191.54 597.279L1191.54 597.279C1191.54 597.279 1192.86 606.181 1203.27 610.287C1213.64 606.079 1214.87 597.165 1214.87 597.165L1214.87 597.165C1214.94 596.796 1214.98 596.416 1214.98 596.027Z" fill="black"/>
<path d="M1334.74 591.664L1224.34 592.201L1224.35 594.367L1334.75 593.829L1334.74 591.664Z" fill="black"/>
<path d="M1334.76 595.754L1224.36 596.291L1224.37 598.455L1334.77 597.918L1334.76 595.754Z" fill="black"/>
<path d="M1334.78 599.842L1224.38 600.379L1224.39 602.544L1334.79 602.007L1334.78 599.842Z" fill="black"/>
<path d="M1264.08 604.275L1224.4 604.468L1224.41 606.632L1264.09 606.439L1264.08 604.275Z" fill="black"/>
<g opacity="0.02">
<path d="M1180.22 499.985L1344.68 499.185C1347.68 499.17 1350.13 501.593 1350.15 504.598L1350.27 530.517C1350.29 533.522 1347.86 535.969 1344.86 535.983L1228.73 536.548L1221.19 545.966L1212.21 536.629L1180.4 536.784C1177.4 536.798 1174.95 534.375 1174.93 531.37L1174.81 505.451C1174.79 502.447 1177.22 500 1180.22 499.985Z" fill="black"/>
<path d="M1180.2 494.934L1344.65 494.134C1347.66 494.119 1350.11 496.543 1350.12 499.547L1350.25 525.466C1350.26 528.471 1347.84 530.918 1344.83 530.932L1228.71 531.498L1221.16 540.915L1212.18 531.578L1180.38 531.733C1177.37 531.747 1174.92 529.324 1174.91 526.319L1174.78 500.4C1174.77 497.396 1177.19 494.949 1180.2 494.934Z" fill="white"/>
<path d="M1195.73 504.96L1306.13 504.423L1306.14 506.587L1195.74 507.124L1195.73 504.96Z" fill="black"/>
<path d="M1195.75 509.049L1306.15 508.511L1306.16 510.677L1195.76 511.214L1195.75 509.049Z" fill="black"/>
<path d="M1195.77 513.138L1306.17 512.601L1306.18 514.764L1195.78 515.302L1195.77 513.138Z" fill="black"/>
<path d="M1266.5 516.882L1306.19 516.689L1306.2 518.854L1266.51 519.047L1266.5 516.882Z" fill="black"/>
<path d="M1332.69 504.743C1332.7 507.173 1330.74 509.154 1328.31 509.166C1325.88 509.178 1323.9 507.216 1323.89 504.786C1323.88 502.355 1325.84 500.374 1328.27 500.362C1330.7 500.351 1332.68 502.312 1332.69 504.743Z" fill="black"/>
<path d="M1336.5 519.797C1336.48 515.377 1332.88 511.811 1328.46 511.833C1324.04 511.854 1320.47 515.455 1320.49 519.875L1336.5 519.797Z" fill="black"/>
</g>
<g opacity="0.02">
<path d="M1180.22 499.985L1344.68 499.185C1347.68 499.17 1350.13 501.593 1350.15 504.598L1350.27 530.517C1350.29 533.522 1347.86 535.969 1344.86 535.983L1228.73 536.548L1221.19 545.966L1212.21 536.629L1180.4 536.784C1177.4 536.798 1174.95 534.375 1174.93 531.37L1174.81 505.451C1174.79 502.447 1177.22 500 1180.22 499.985Z" fill="black"/>
<path d="M1180.2 494.934L1344.65 494.134C1347.66 494.119 1350.11 496.543 1350.12 499.547L1350.25 525.466C1350.26 528.471 1347.84 530.918 1344.83 530.932L1228.71 531.498L1221.16 540.915L1212.18 531.578L1180.38 531.733C1177.37 531.747 1174.92 529.324 1174.91 526.319L1174.78 500.4C1174.77 497.396 1177.19 494.949 1180.2 494.934Z" fill="white"/>
<path d="M1195.73 504.96L1306.13 504.423L1306.14 506.587L1195.74 507.124L1195.73 504.96Z" fill="black"/>
<path d="M1195.75 509.049L1306.15 508.511L1306.16 510.677L1195.76 511.214L1195.75 509.049Z" fill="black"/>
<path d="M1195.77 513.138L1306.17 512.601L1306.18 514.764L1195.78 515.302L1195.77 513.138Z" fill="black"/>
<path d="M1266.5 516.882L1306.19 516.689L1306.2 518.854L1266.51 519.047L1266.5 516.882Z" fill="black"/>
<path d="M1332.69 504.743C1332.7 507.173 1330.74 509.154 1328.31 509.166C1325.88 509.178 1323.9 507.216 1323.89 504.786C1323.88 502.355 1325.84 500.374 1328.27 500.362C1330.7 500.351 1332.68 502.312 1332.69 504.743Z" fill="black"/>
<path d="M1336.5 519.797C1336.48 515.377 1332.88 511.811 1328.46 511.833C1324.04 511.854 1320.47 515.455 1320.49 519.875L1336.5 519.797Z" fill="black"/>
</g>
<path d="M1260.82 377.841C1260.82 377.841 1234.44 384.906 1225.42 392.569C1216.4 400.232 1199.36 450.908 1195.73 450.363C1192.09 449.818 1159.99 413.815 1154.84 411.899C1154.84 411.899 1143.5 431.233 1139.93 432.129C1139.93 432.129 1179.18 481.509 1192.54 488.806C1205.9 496.101 1234.78 451.35 1234.78 451.35L1260.82 377.841Z" fill="#F8FCFF"/>
<path d="M1144.49 412.482C1144.49 412.482 1139.35 407.573 1138.26 403.425C1138.1 402.814 1137.27 402.719 1136.98 403.281C1135.78 405.611 1134.54 409.797 1138.64 413.049C1144.66 417.813 1144.49 412.482 1144.49 412.482Z" fill="#FFC5B9"/>
<path d="M1151.35 421.821C1150.63 421.856 1147.29 412.629 1142.21 412.153C1137.13 411.678 1127.08 412.89 1125.64 412.96C1124.19 413.031 1111.56 405.699 1106 410.304C1106 410.304 1121.38 414.613 1123.68 417.39C1125.99 420.167 1136.43 426.882 1146.59 427.833" fill="#FFC5B9"/>
<path d="M1231.36 566.309L1235.69 566.612L1302.07 565.7L1309.79 550.077L1262.8 543.507C1262.8 543.507 1223.07 540.445 1231.36 566.309Z" fill="#262626"/>
<path d="M1223.18 548.382C1222.39 551.16 1307.76 559.487 1321.25 543.426C1343.53 516.893 1228.68 528.822 1223.18 548.382Z" fill="#262626"/>
<path d="M1269.15 375.281C1269.15 375.281 1235.37 385.847 1234.07 395.968C1232.77 406.089 1236.13 546.038 1236.13 546.038C1236.13 546.038 1302.59 550.898 1309.72 545.027C1316.86 539.157 1323.41 385.359 1316.84 380.398C1310.28 375.437 1286.42 372.157 1286.42 372.157L1269.15 375.281Z" fill="#262626"/>
<path d="M1300.15 373.412C1300.15 373.412 1285.05 403.567 1286.96 437.457C1288.87 471.347 1291.67 570.533 1291.67 570.533L1327.63 561.38L1325.49 405.897C1325.49 405.897 1319.46 386.277 1300.15 373.412Z" fill="#F8FCFF"/>
<g opacity="0.2">
<path d="M1287.41 496.263L1325.54 491.884L1325.77 423.45C1325.77 423.45 1328.27 461.432 1284.14 468.886C1230.03 478.027 1288.98 491.686 1288.98 491.686" fill="#232323"/>
</g>
<path d="M1260.77 378.23C1260.77 378.23 1252.51 398.963 1251.84 455.259C1251.17 511.555 1249.83 571.108 1249.83 571.108L1215.88 568.688C1215.88 568.688 1225.98 410.873 1233.7 395.613C1241.43 380.352 1260.77 378.23 1260.77 378.23Z" fill="#F8FCFF"/>
<path d="M1303.84 377.254L1310.27 401.055L1302.34 401.164L1306.16 416.987L1287.69 453.689L1310.52 419.092L1305.96 402.557L1313.18 402.458L1303.84 377.254Z" fill="#232323"/>
<path d="M1258.38 379.217L1237.71 398.083L1242.76 398.013L1236.46 412.533L1249.87 442.657L1239.35 412.493L1245.63 397.252L1242.01 395.859L1258.38 379.217Z" fill="#232323"/>
<path d="M1249.53 304.908C1249.54 306.187 1243.41 325.474 1250.11 347.142C1256.81 368.81 1268.29 366.09 1268.29 366.09C1268.29 366.09 1267.14 375.067 1263.35 378.959L1264.62 381.643C1266.53 385.7 1275.22 387.61 1281.45 387.365C1285.27 387.215 1288.86 385.498 1291.53 382.761L1298.3 374.515C1298.3 374.515 1287.3 351.747 1295.97 331.146C1304.65 310.544 1269.65 279.028 1250.8 304.89" fill="#FFC5B9"/>
<path d="M1292.16 324.798C1292.16 324.798 1293.57 343.258 1284.36 345.695C1275.16 348.132 1265.79 339.023 1257.76 342.599C1249.72 346.175 1248.47 339.263 1248.47 339.263C1248.47 339.263 1246.37 354.306 1246.42 357.77C1246.47 361.235 1253.52 370.376 1261.6 370.264C1269.69 370.152 1292.61 357.13 1295.97 350.154C1299.34 343.178 1295.62 324.75 1295.62 324.75L1292.16 324.798Z" fill="black"/>
<path d="M1276.45 308.375C1276.45 308.375 1252.34 316.222 1245.72 307.521C1235.86 294.558 1254.4 286.919 1263.41 290.635C1272.42 294.35 1301.73 284.983 1296.88 304.251C1296.88 304.251 1312.29 307.878 1304.82 323.342C1297.36 338.807 1294.9 346.521 1294.9 346.521L1294.67 329.883C1294.67 329.883 1285.38 305.691 1276.45 308.375Z" fill="black"/>
<path d="M1274.02 325.673C1274.26 330.896 1271.69 335.256 1268.28 335.409C1264.88 335.563 1261.93 331.452 1261.69 326.229C1261.46 321.005 1264.03 316.647 1267.43 316.493C1270.83 316.34 1273.79 320.449 1274.02 325.673Z" stroke="white" stroke-width="0.749074" stroke-miterlimit="10"/>
<path d="M1256.14 325.825C1256.38 331.048 1253.81 335.408 1250.4 335.561C1247 335.715 1244.05 331.604 1243.81 326.381C1243.58 321.158 1246.15 316.799 1249.55 316.645C1252.96 316.492 1255.91 320.601 1256.14 325.825Z" stroke="white" stroke-width="0.749074" stroke-miterlimit="10"/>
<path d="M1273.81 325.783L1297.68 329.782" stroke="white" stroke-width="0.749074" stroke-miterlimit="10"/>
<path d="M1255.77 325.312C1255.77 325.312 1258.62 323.108 1261.7 324.906" stroke="white" stroke-width="0.749074" stroke-miterlimit="10"/>
<path d="M1301.98 336.239C1300.31 339.751 1297.15 341.739 1294.92 340.678C1292.68 339.617 1292.22 335.909 1293.89 332.397C1295.56 328.885 1298.72 326.897 1300.95 327.959C1303.19 329.02 1303.65 332.726 1301.98 336.239Z" fill="#FFC5B9"/>
<path d="M1193.94 445.009L1254.27 439.146L1283.72 510.954L1223.4 516.818L1193.94 445.009Z" fill="black"/>
<path d="M1282.55 480.257C1282.55 480.257 1276.69 472.874 1268 472.621L1270.58 478.919C1270.58 478.919 1255.42 477.094 1251.55 474.571C1247.68 472.046 1250.45 485.553 1254.32 488.077C1258.19 490.601 1264.28 493.633 1266.57 494.86C1268.87 496.087 1284.46 492.396 1284.46 492.396L1282.55 480.257Z" fill="#FFC5B9"/>
<path d="M1300.55 374.476C1300.55 374.476 1332.91 379.305 1343.87 387.664C1354.84 396.023 1368.37 460.68 1364.83 468.999C1361.29 477.317 1291.12 497.549 1285.38 498.107C1285.38 498.107 1283.49 478.716 1278.18 476.332C1278.18 476.332 1329.38 462.295 1331.05 457.058C1332.71 451.822 1323.56 387.464 1300.55 374.476Z" fill="#F8FCFF"/>
</g>
<defs>
<clipPath id="clip0_210_90">
<rect width="1440" height="1024" fill="white"/>
</clipPath>
</defs>
</svg>
